#Copyright (c) Facebook, Inc. and its affiliates.
#All rights reserved.

#This source code is licensed under the license found in the
#LICENSE file in the root directory of this source tree.'
# www.blender.org
mtllib better_initial_sheet.mtl
o Plane_Plane.001
v 0.000000 -0.004358 0.000000
v -0.000094 0.000000 -0.004357
v -0.000094 -0.004358 -0.004357
v 0.000094 -0.004358 0.004357
v 0.000000 0.000000 0.000000
v -0.000094 0.004358 -0.004357
v 0.000094 0.000000 0.004357
v 0.000000 0.004358 0.000000
v -0.000094 -0.008716 -0.004357
v -0.000187 -0.004358 -0.008714
v -0.000187 -0.008716 -0.008714
v 0.000000 -0.008716 0.000000
v 0.000094 -0.008716 0.004357
v 0.000187 -0.004358 0.008714
v 0.000187 0.000000 0.008714
v 0.000094 0.004358 0.004357
v 0.000187 0.004358 0.008714
v 0.000094 0.008716 0.004357
v 0.000000 0.008716 0.000000
v -0.000094 0.008716 -0.004357
v -0.000187 0.004358 -0.008714
v -0.000187 0.008716 -0.008714
v -0.000187 0.000000 -0.008714
v 0.000187 -0.008716 0.008714
v 0.000187 0.008716 0.008714
vt 0.500000 0.250000
vt 0.250000 0.500000
vt 0.250000 0.250000
vt 0.750000 0.250000
vt 0.500000 0.500000
vt 0.250000 0.750000
vt 0.750000 0.500000
vt 0.500000 0.750000
vt 0.250000 0.000000
vt 0.000000 0.250000
vt 0.000000 0.000000
vt 0.500000 0.000000
vt 0.750000 0.000000
vt 1.000000 0.250000
vt 1.000000 0.500000
vt 0.750000 0.750000
vt 1.000000 0.750000
vt 0.750000 1.000000
vt 0.500000 1.000000
vt 0.250000 1.000000
vt 0.000000 0.750000
vt 0.000000 1.000000
vt 0.000000 0.500000
vt 1.000000 0.000000
vt 1.000000 1.000000
vn -0.9998 0.0000 0.0216
vn -0.9998 0.0000 0.0215
vn -0.9998 0.0000 0.0213
usemtl None
s 1
f 1/1/1 2/2/2 3/3/2
f 4/4/2 5/5/1 1/1/1
f 5/5/1 6/6/2 2/2/2
f 7/7/2 8/8/1 5/5/1
f 9/9/2 10/10/3 11/11/3
f 12/12/1 3/3/2 9/9/2
f 13/13/2 1/1/1 12/12/1
f 13/13/2 14/14/3 4/4/2
f 14/14/3 7/7/2 4/4/2
f 15/15/3 16/16/2 7/7/2
f 17/17/3 18/18/2 16/16/2
f 16/16/2 19/19/1 8/8/1
f 8/8/1 20/20/2 6/6/2
f 21/21/3 20/20/2 22/22/3
f 2/2/2 21/21/3 23/23/3
f 3/3/2 23/23/3 10/10/3
f 1/1/1 5/5/1 2/2/2
f 4/4/2 7/7/2 5/5/1
f 5/5/1 8/8/1 6/6/2
f 7/7/2 16/16/2 8/8/1
f 9/9/2 3/3/2 10/10/3
f 12/12/1 1/1/1 3/3/2
f 13/13/2 4/4/2 1/1/1
f 13/13/2 24/24/3 14/14/3
f 14/14/3 15/15/3 7/7/2
f 15/15/3 17/17/3 16/16/2
f 17/17/3 25/25/3 18/18/2
f 16/16/2 18/18/2 19/19/1
f 8/8/1 19/19/1 20/20/2
f 21/21/3 6/6/2 20/20/2
f 2/2/2 6/6/2 21/21/3
f 3/3/2 2/2/2 23/23/3
